# xmcd
#
# Track frame offsets: 
#        150
#        69928
#        143349
#        161049
#        202613
#
# Disc length: 3450 seconds
#
# Revision: 0
# Processed by: cddbd v1.4PL0 Copyright (c) Steve Scherf et al.
# Submitted via: ExactAudioCopy v0.90b4
#
DISCID=340d7805
DTITLE=Van Morrison - Cambridge Corn Excange
DYEAR=1994
DGENRE=Celtic
TTITLE0=Moondance > My Funny Valentine
TTITLE1=I'll Take Care Of You > It's Hustle Time > It's A Man's Man's 
TTITLE1=Man's World
TTITLE2=Turn On Your Lovelight
TTITLE3=Lonely Avenue > Be Bop A Lula > Four O'Clock In The Morning > 
TTITLE3=Family Affair > Down The Line > You Give Me Nothing But The Bl
TTITLE3=ues
TTITLE4=In The Garden > Daring Night > Real Real Gone > You Send Me
EXTD=
EXTT0=
EXTT1=
EXTT2=
EXTT3=
EXTT4=
PLAYORDER=
